<svg width="21" height="21" fill="none" xmlns="http://www.w3.org/2000/svg"><g clip-path="url('#clip0_27_16')"><path fill-rule="evenodd" clip-rule="evenodd" d="M.5 10.556c0 4.972 3.61 9.106 8.333 9.944v-7.223h-2.5V10.5h2.5V8.277c0-2.5 1.611-3.888 3.89-3.888.721 0 1.5.111 2.221.222v2.556h-1.277c-1.223 0-1.5.61-1.5 1.389V10.5h2.666l-.444 2.777h-2.222V20.5c4.722-.838 8.333-4.972 8.333-9.944C20.5 5.025 16 .5 10.5.5S.5 5.025.5 10.556Z" fill="#4267B2"/></g><defs><clipPath id="clip0_27_16"><path fill="#fff" transform="translate(.5 .5)" d="M0 0h20v20H0z"/></clipPath></defs></svg>